<svg viewBox="0 0 1024 1024"  xmlns="http://www.w3.org/2000/svg" width="200" height="200">
    <path d="M214.25619794 600.02860206c31.06891852 0 62.13783703-18.12353539 77.67229629-44.01430042 15.53445925-28.47984238 15.53445925-62.13783703 0-88.02860328-15.53445925-28.47984238-46.60337778-44.01430164-77.67229629-44.01430042s-62.13783703 18.12353539-77.6722963 44.01430042c-15.53445925 28.47984238-15.53445925 62.13783703 0 88.02860328 18.12353539 28.47984238 46.60337778 44.01430164 77.6722963 44.01430042z m0 0M512 600.02860206c31.06891852 0 62.13783703-18.12353539 77.6722963-44.01430042 15.53445925-28.47984238 15.53445925-62.13783703 0-88.02860328-15.53445925-28.47984238-46.60337778-44.01430164-77.6722963-44.01430042s-62.13783703 18.12353539-77.6722963 44.01430042c-15.53445925 28.47984238-15.53445925 62.13783703 0 88.02860328 15.53445925 28.47984238 46.60337778 44.01430164 77.6722963 44.01430042z m0 0M809.74380206 600.02860206c31.06891852 0 62.13783703-18.12353539 77.6722963-44.01430042 15.53445925-28.47984238 15.53445925-62.13783703 0-88.02860328-15.53445925-28.47984238-46.60337778-44.01430164-77.6722963-44.01430042s-62.13783703 18.12353539-77.67229629 44.01430042c-15.53445925 28.47984238-15.53445925 62.13783703 0 88.02860328 15.53445925 28.47984238 44.01430164 44.01430164 77.67229629 44.01430042z m0 0"
          p-id="15297"></path>
</svg>
